<?xml version="1.0" encoding="UTF-8"?>
<svg width="385px" height="385px" viewBox="0 0 385 385" version="1.1" xmlns="http://www.w3.org/2000/svg" xmlns:xlink="http://www.w3.org/1999/xlink">
    <title>ICON</title>
    <g id="Page-1" stroke="none" stroke-width="1" fill="none" fill-rule="evenodd">
        <g id="Transition" transform="translate(-14.000000, -256.000000)">
            <g id="All" transform="translate(14.360000, 256.360000)">
                <g id="EarthShine" fill="#609AFF">
                    <circle id="Oval-Copy-2" opacity="0.02" cx="192" cy="192" r="192"></circle>
                    <circle id="Oval-Copy-4" opacity="0.02" cx="192" cy="192" r="158"></circle>
                    <circle id="Oval-Copy-3" opacity="0.02" cx="192" cy="192" r="130"></circle>
                    <circle id="Oval-Copy-2" opacity="0.06" cx="192.56" cy="191.44" r="110"></circle>
                    <circle id="Oval-Copy" opacity="0.08" cx="192.64" cy="191.64" r="90"></circle>
                    <circle id="Oval" opacity="0.100336119" cx="192.64" cy="191.64" r="70"></circle>
                </g>
                <g id="Earth" transform="translate(142.640000, 141.640000)" fill="#609AFF">
                    <circle id="Oval" cx="49.8214286" cy="49.8214286" r="49.8214286"></circle>
                </g>
                <g id="Regler" transform="translate(106.840000, 170.240000)">
                    <path d="M3.17689485,93.9113041 C23.3339159,116.776191 52.8425274,131.2 85.72,131.2 C146.471322,131.2 195.72,81.9513225 195.72,21.2 C195.72,14.9131892 195.192595,8.74956037 194.179617,2.75094417" id="Path" stroke="#609AFF" stroke-width="2"></path>
                    <circle id="Oval-Copy-7" fill="#609AFF" cx="4" cy="95" r="4"></circle>
                    <circle id="Oval-Copy-9" fill="#609AFF" cx="194" cy="4" r="4"></circle>
                </g>
                <g id="Regler" transform="translate(140.640000, 101.240000)">
                    <path d="M128.680887,137.541452 C137.12741,123.83146 142,107.684757 142,90.4 C142,40.6943725 101.705627,0.4 52,0.4 C34.3931679,0.4 17.967197,5.45586793 4.09470044,14.1949908" id="Path" stroke="#609AFF" stroke-width="2"></path>
                    <circle id="Oval" fill="#609AFF" cx="4" cy="14.4" r="4"></circle>
                    <circle id="Oval-Copy-8" fill="#609AFF" cx="128" cy="137.4" r="4"></circle>
                </g>
                <g id="Regler" transform="translate(118.840000, 119.440000)">
                    <path d="M54.6789001,4.84350536 C27.1362405,12.6470084 6.50114403,36.8885936 4.04507778,66.2964461" id="Path" stroke="#609AFF" stroke-width="2"></path>
                    <circle id="Oval-Copy-7" fill="#609AFF" cx="4" cy="65.8" r="4"></circle>
                    <circle id="Oval" fill="#609AFF" cx="57.2" cy="4" r="4"></circle>
                </g>
            </g>
        </g>
    </g>
</svg>