<?xml version="1.0" encoding="UTF-8"?>
<svg width="256px" height="256px" viewBox="0 0 256 256" version="1.1" xmlns="http://www.w3.org/2000/svg" xmlns:xlink="http://www.w3.org/1999/xlink">
    <title>planet_icon</title>
    <g id="planet_icon" stroke="none" stroke-width="1" fill="none" fill-rule="evenodd">
        <path d="M200.906162,29.0009585 C179.824012,13.3458145 154.245186,4.92708313 127.984493,5 C125.883777,5 123.785203,5 121.684327,5.15114513 C92.1530325,6.65783823 64.1622313,18.782365 42.8545774,39.290534 C30.8820113,50.7537229 21.3535584,64.5236925 14.8466359,79.7700874 C8.34132023,95.017018 4.99197986,111.423232 5,128.000874 L5,132.230061 C5.68418401,151.645375 10.9482672,170.621405 20.3642363,187.612081 C29.7775271,204.604365 43.0763313,219.127012 59.1727694,229.998238 C74.9488963,240.611786 92.9618449,247.431949 111.80771,249.930515 C130.655717,252.429134 149.823499,250.535282 167.819308,244.399813 L167.969956,244.399813 C196.409085,234.629477 220.284585,214.776486 235.079959,188.594579 C249.876941,162.413744 254.570196,131.717919 248.272172,102.312627 C241.974148,72.9046561 225.122461,46.8234638 200.903618,29.0002889 L200.906162,29.0009585 Z M16.5593493,92 C38.964463,104.427838 65.190165,107.855073 89.9919557,101.598307 C90.0461786,102.421458 89.825112,103.240459 89.3641961,103.922564 C88.0503216,105.520468 86.2733956,106.66155 84.2796528,107.181591 C78.8990086,108.615327 73.3411096,109.25534 67.7768037,109.082658 C60.3625344,109.23424 52.6775778,109.383715 45.7117844,112.975392 C41.3988868,115.43649 37.4779786,118.539596 34.0807728,122.181876 L33.2444719,122.967138 C30.0932339,126.379821 26.3016362,129.129586 22.0929025,131.055823 C18.4432155,132.657984 14.2264199,132.199007 11,129.847371 L11,127.914721 L11,127.916826 C10.9875486,115.725052 12.8645477,103.607115 16.5600968,92 L16.5593493,92 Z M103.281683,242.295308 C106.158733,239.975651 109.525512,238.343276 113.127185,237.517701 C119.400496,235.62553 126.124084,232.800818 128.136389,226.191926 L128.136389,226.194021 C128.909041,223.222648 128.676613,220.079722 127.476788,217.252704 C126.276963,214.428046 124.1768,212.079046 121.502589,210.572466 C116.579784,207.919628 110.809067,207.314045 105.442204,208.889826 C99.5939749,210.765261 94.0743401,213.541747 89.0821715,217.120902 C87.191387,218.353042 85.3005489,219.553747 83.3491915,220.666423 C79.3875121,222.95046 69.4495963,227.845547 62.3368416,224.721128 C51.4171095,217.311873 41.8331965,208.098047 34,197.476076 C42.30009,200.457909 51.1951877,201.39458 59.9353689,200.208574 C66.156148,198.930354 72.2037853,196.914534 77.9474861,194.201026 L82.4201218,192.338144 C95.5113642,187.470416 108.960683,183.625349 122.644253,180.832127 L132.521382,178.518746 L147.199847,175.094782 C150.116672,174.225165 153.16547,173.868918 156.205906,174.042884 C158.555275,174.227284 160.644985,175.612389 161.727685,177.707816 C162.718132,180.352285 161.097406,183.715363 156.654145,188.432246 C154.162403,191.04528 147.648087,198.014604 150.200723,205.40562 C152.087327,209.265439 155.372681,212.26181 159.386892,213.787434 C160.693497,214.426544 161.956147,215.149499 163.168515,215.949916 C166.485281,218.275849 168.606671,221.947271 168.962604,225.98288 C169.247377,230.613825 167.89888,235.19456 165.15166,238.930838 C145.211396,245.621805 123.838825,246.80572 103.281576,242.356894 L103.281683,242.295308 Z M217.302942,203 C211.063879,202.39858 204.075466,201.649639 198.645746,198.170522 C193.935918,195.170473 190.247008,188.662012 192.647183,183.505008 C194.115998,180.055187 197.71685,177.806007 201.646366,175.438252 L204.826692,173.39848 C211.03683,169.139037 215.895028,161.791605 212.775497,154.952912 L212.773404,154.952912 C211.511719,152.708123 209.660033,150.850338 207.417067,149.580608 C205.176189,148.312807 202.62984,147.680995 200.056387,147.754207 C197.480739,147.775128 194.911357,148.015716 192.377542,148.473906 C190.848039,148.714495 189.377135,148.95299 187.789088,149.074334 C180.170769,149.643377 172.791343,146.973882 164.993051,144.126577 L164.990959,144.124485 C158.286966,141.325274 151.217136,139.507282 143.99465,138.72701 C132.145896,138.036607 121.288599,142.83585 110.789642,147.423596 C101.790459,151.352485 93.4211809,155.041009 84.3930736,155.701903 C79.455173,156.268857 74.4651017,155.216542 70.1757464,152.703942 C68.2864054,151.540737 66.7548142,149.87549 65.7546788,147.896344 C64.7524545,145.915163 64.32143,143.697582 64.5055809,141.486106 C65.5852043,134.977859 73.5047639,131.228869 80.9720343,130.929485 L80.9741265,130.929485 C84.2779156,130.877183 87.5838472,131.01735 90.8726386,131.347899 C96.086712,132.052923 101.373739,132.052923 106.590276,131.347899 C113.986843,129.517321 120.964544,126.278836 127.136652,121.812074 C132.6585,117.789033 138.885243,114.838952 145.494428,113.113346 C153.202734,111.674001 161.122079,113.772365 169.491357,116.113395 C179.000999,118.632234 188.807382,121.24105 198.586983,118.36236 L198.584891,118.36236 C205.686324,116.276583 211.699348,111.51724 215.358798,105.083972 C219.018248,98.6507049 220.037238,91.0504304 218.200175,83.8807542 C216.365201,76.7132202 211.816491,70.537562 205.514224,66.6568214 C200.745852,63.7718663 195.255766,62.3032261 189.685711,62.4203553 C184.114048,62.5375112 178.690756,64.2362591 174.047883,67.3157868 C171.809094,68.9455265 169.69377,70.7404895 167.720977,72.6838054 C165.488455,75.0206582 162.944195,77.0394895 160.161577,78.6816544 C155.453839,81.1000745 149.869374,81.1000745 145.163832,78.6816544 C140.537724,76.1104897 137.418032,71.4868064 136.765094,66.2360776 C136.643741,64.4180851 136.643741,62.5958616 136.765094,60.7780833 C137.191925,57.0311817 136.760909,53.2361859 135.505498,49.6794652 C133.860941,46.4346605 131.239282,43.7860524 128.01091,42.1081114 C124.782485,40.4281888 121.108198,39.8047318 117.507667,40.323592 C110.833135,41.3277859 104.671204,44.4867922 99.9592338,49.3195621 C97.8585317,51.3300385 95.9105924,53.4576976 93.9606712,55.5289612 C92.0106429,57.598029 89.6714231,60.1775486 87.3905874,62.2466163 L87.3926795,62.2466163 C79.3956673,69.4602093 69.2438004,73.83903 58.5102353,74.707189 C47.7745276,75.5733129 37.0516751,72.8807881 28,67.0458595 C33.0111218,58.6524057 39.0581592,50.92413 45.998366,44.0415193 C58.520948,45.7402939 71.2443926,43.0373254 81.9924199,36.3951857 C86.0787163,33.67133 89.9663998,30.6651218 93.6317417,27.3970734 C97.3770002,24.0748788 101.389861,21.0644931 105.628867,18.398961 C110.650434,15.3905569 116.293335,13.5746531 122.126923,13.0913547 C124.528919,12.9093466 126.943449,13 129.324769,13.3612338 C137.365704,14.520261 144.475171,19.1898426 148.732923,26.1061942 C149.423409,27.3656408 150.053154,28.6857138 150.682952,30.0957626 C151.64961,32.4326154 152.856875,34.6648178 154.281768,36.7550406 C158.989507,42.9076693 166.362988,46.4327913 174.108788,46.2319526 C175.504381,46.234045 176.897833,46.135716 178.278804,45.9306944 C186.223324,44.4181375 193.535796,40.5626758 199.275112,34.863675 C216.055447,47.7259252 229.030104,64.9016566 236.809113,84.5586841 C244.590265,104.217854 246.883849,125.617626 243.448294,146.475937 C240.012685,167.335855 230.976061,186.871844 217.302938,203 L217.302942,203 Z" id="Shape" fill="#609AFF" fill-rule="nonzero"></path>
    </g>
</svg>