<svg xmlns="http://www.w3.org/2000/svg" xmlns:xlink="http://www.w3.org/1999/xlink" width="385" height="385" version="1.1" viewBox="0 0 385 385"><title>ICON</title><g id="Page-1" fill="none" fill-rule="evenodd" stroke="none" stroke-width="1"><g id="Transition" transform="translate(-14.000000, -256.000000)"><g id="All" transform="translate(14.360000, 256.360000)"><g id="EarthShine" fill="#609AFF"><circle id="Oval-Copy-2" cx="192" cy="192" r="192" opacity=".02"/><circle id="Oval-Copy-4" cx="192" cy="192" r="158" opacity=".02"/><circle id="Oval-Copy-3" cx="192" cy="192" r="130" opacity=".02"/><circle id="Oval-Copy-2" cx="192.56" cy="191.44" r="110" opacity=".06"/><circle id="Oval-Copy" cx="192.64" cy="191.64" r="90" opacity=".08"/><circle id="Oval" cx="192.64" cy="191.64" r="70" opacity=".1"/></g><g id="Earth" fill="#609AFF" transform="translate(142.640000, 141.640000)"><circle id="Oval" cx="49.821" cy="49.821" r="49.821"/></g><g id="Regler" transform="translate(106.840000, 170.240000)"><path id="Path" stroke="#609AFF" stroke-width="2" d="M3.17689485,93.9113041 C23.3339159,116.776191 52.8425274,131.2 85.72,131.2 C146.471322,131.2 195.72,81.9513225 195.72,21.2 C195.72,14.9131892 195.192595,8.74956037 194.179617,2.75094417"/><circle id="Oval-Copy-7" cx="4" cy="95" r="4" fill="#609AFF"/><circle id="Oval-Copy-9" cx="194" cy="4" r="4" fill="#609AFF"/></g><g id="Regler" transform="translate(140.640000, 101.240000)"><path id="Path" stroke="#609AFF" stroke-width="2" d="M128.680887,137.541452 C137.12741,123.83146 142,107.684757 142,90.4 C142,40.6943725 101.705627,0.4 52,0.4 C34.3931679,0.4 17.967197,5.45586793 4.09470044,14.1949908"/><circle id="Oval" cx="4" cy="14.4" r="4" fill="#609AFF"/><circle id="Oval-Copy-8" cx="128" cy="137.4" r="4" fill="#609AFF"/></g><g id="Regler" transform="translate(118.840000, 119.440000)"><path id="Path" stroke="#609AFF" stroke-width="2" d="M54.6789001,4.84350536 C27.1362405,12.6470084 6.50114403,36.8885936 4.04507778,66.2964461"/><circle id="Oval-Copy-7" cx="4" cy="65.8" r="4" fill="#609AFF"/><circle id="Oval" cx="57.2" cy="4" r="4" fill="#609AFF"/></g></g></g></g></svg>