<?xml version="1.0" encoding="UTF-8"?>
<svg width="100px" height="100px" viewBox="0 0 100 100" version="1.1" xmlns="http://www.w3.org/2000/svg" xmlns:xlink="http://www.w3.org/1999/xlink">
    <title>SwipeIndicator</title>
    <g id="SwipeIndicator" stroke="none" stroke-width="1" fill="none" fill-rule="evenodd">
        <path d="M31.3334131,38.5161632 C32.4169391,37.5156029 33.9840304,37.5098264 35.1127715,37.5098263 C36.2415126,37.5098259 37.0199884,39.2840157 37.0199884,39.2840157 C37.0199884,39.2840157 38.5253012,33.1896779 42.0674146,32.5422923 C45.6095279,31.8949067 46.2184732,34.0255987 46.2184732,34.0255987 L46.2184732,9.92052266 C46.2184732,9.92052266 46.2184732,5 50.7081056,5 C55.1977379,5 55.1977378,9.92052266 55.1977378,9.92052266 L55.1977378,43.7767837 C55.1977378,48.856949 57.0522123,56.4372859 57.0522123,56.4372859 C57.0522123,56.4372859 68.7942316,34.9550557 78.7253995,41.7844323 C80.268018,43.0454142 74.9400101,46.2607619 71.9863385,51.1772092 C68.4152085,57.1214273 66.1037055,65.7293759 65.6735465,66.6745003 C65.2433876,67.6196245 57.0901763,83.4223516 56.3664258,84.366443 C55.6426751,85.3105342 54.1697696,85.925041 53.7167828,86.5245583 C53.2637959,87.1240756 53.2023457,90.760478 53.2023457,90.760478 C53.2023457,90.760478 50.8125777,94 41.229993,94 C31.6474082,94 29.2576402,90.760478 29.2576402,90.760478 C29.2576402,90.760478 30.831155,80.8420522 30.831155,79.9410088 C30.831155,79.0399653 20,61.1187274 20,58.7780069 C20,56.4372864 22.8077926,47.6414479 24.5361724,44.7129403 C26.264552,41.7844323 29.2576402,42.6273849 29.2576402,42.6273849 C29.2576402,42.6273849 29.8463007,39.8894071 31.3334131,38.5161632 Z" id="Shape" fill="#609AFF" fill-rule="nonzero" transform="translate(49.500000, 49.500000) rotate(-90.000000) translate(-49.500000, -49.500000) "></path>
    </g>
</svg>