<svg xmlns="http://www.w3.org/2000/svg" xmlns:xlink="http://www.w3.org/1999/xlink" id="Ebene_1" x="0" y="0" version="1.1" viewBox="0 0 52 88" xml:space="preserve" style="enable-background:new 0 0 52 88"><style type="text/css">.st0{fill:#202020}</style><path id="Shape" d="M10.1,39.5c0.9-0.9,2.3-0.9,3.3-0.9s1.7,1.6,1.7,1.6s1.3-5.3,4.4-5.9s3.6,1.3,3.6,1.3V14.5	c0,0,0-4.3,3.9-4.3s3.9,4.3,3.9,4.3v29.6c0,4.4,1.6,11.1,1.6,11.1s10.3-18.8,19-12.8c1.4,1.1-3.3,3.9-5.9,8.2	c-3.1,5.2-5.2,12.7-5.5,13.5c-0.4,0.8-7.5,14.6-8.2,15.5c-0.6,0.8-1.9,1.4-2.3,1.9s-0.5,3.7-0.5,3.7S27.2,88,18.8,88	S8.3,85.1,8.3,85.1s1.4-8.7,1.4-9.5S0.2,59.2,0.2,57.1s2.5-9.7,4-12.3S8.3,43,8.3,43S8.8,40.7,10.1,39.5z" class="st0"/></svg>