<svg xmlns="http://www.w3.org/2000/svg" xmlns:xlink="http://www.w3.org/1999/xlink" width="52" height="88" version="1.1" viewBox="0 0 52 88"><title>noun_tap_33049</title><g id="Page-1" fill="none" fill-rule="evenodd" stroke="none" stroke-width="1"><g id="noun_tap_33049" fill="#609AFF" fill-rule="nonzero"><path id="Shape" d="M22,20.8005809 C18.438324,18.97987 16,15.2746857 16,11 C16,4.92486746 20.9248675,0 27,0 C33.0751325,0 38,4.92486746 38,11 C38,15.2746857 35.561676,18.97987 32,20.8005809 L32,19.6621782 C34.9890069,17.9331312 37,14.701412 37,11 C37,5.47715222 32.5228478,1 27,1 C21.4771522,1 17,5.47715222 17,11 C17,14.701412 19.0109931,17.9331312 22,19.6621782 L22,20.8005809 Z M10.1208311,39.4742363 C11.069965,38.5998843 12.4426864,38.5948364 13.4314272,38.5948363 C14.420168,38.594836 15.1020877,40.1452337 15.1020877,40.1452337 C15.1020877,40.1452337 16.4206932,34.8196212 19.5234703,34.2538953 C22.6262473,33.6881694 23.1596638,35.5501009 23.1596638,35.5501009 L23.1596638,14.485582 C23.1596638,14.485582 23.1596638,10.1857224 27.092437,10.1857224 C31.0252101,10.1857224 31.02521,14.485582 31.02521,14.485582 L31.02521,44.0712946 C31.02521,48.5106599 32.6496699,55.1348311 32.6496699,55.1348311 C32.6496699,55.1348311 42.9353001,36.3623184 51.634683,42.3302537 C52.985967,43.4321783 48.3188039,46.2419497 45.7314828,50.538248 C42.6032881,55.7326765 40.578486,63.2548389 40.2016806,64.0807475 C39.8248753,64.906656 32.6829251,78.7160646 32.048943,79.5410705 C31.4149607,80.3660763 30.124743,80.9030707 29.7279412,81.4269663 C29.3311393,81.9508619 29.2773109,85.1285771 29.2773109,85.1285771 C29.2773109,85.1285771 27.1839512,87.9594735 18.789916,87.9594735 C10.3958807,87.9594735 8.30252101,85.1285771 8.30252101,85.1285771 C8.30252101,85.1285771 9.68086922,76.461238 9.68086922,75.6738501 C9.6808692,74.8864621 0.193126723,59.2257666 0.193126723,57.1802991 C0.193126723,55.1348315 2.65266253,47.4484792 4.16666749,44.8893666 C5.68067227,42.3302537 8.30252101,43.0668782 8.30252101,43.0668782 C8.30252101,43.0668782 8.81816865,40.6742624 10.1208311,39.4742363 Z"/></g></g></svg>